<?xml version="1.0" encoding="UTF-8"?>
<svg id="Layer_1" xmlns="http://www.w3.org/2000/svg" version="1.1" viewBox="0 0 64 64">
  <!-- Generator: Adobe Illustrator 29.6.1, SVG Export Plug-In . SVG Version: 2.1.1 Build 9)  -->
  <defs>
    <style>
      .st0 {
        fill: #eb1564;
      }

      .st1 {
        fill: #808083;
      }

      .st2 {
        fill: #babcbe;
      }
    </style>
  </defs>
  <rect class="st1" x="27.9" y="10.3" width="10.4" height="10.4"/>
  <rect class="st2" x="38.3" y="3" width="7.3" height="7.3"/>
  <path class="st0" d="M45.9,38.2c-.4-2-1.1-3.6-2.1-4.8-1-1.3-2.3-2.2-3.8-2.7-1.6-.6-3.4-.9-5.6-.9-2.2,0-4.2.3-5.8.9-.2,0-.4.2-.6.3v-10.2s-10.4,0-10.4,0v38c2.4.8,4.7,1.4,7,1.7s4.9.5,7.8.5c2.5,0,4.7-.3,6.5-.9,1.8-.6,3.3-1.5,4.5-2.7,1.1-1.2,2-2.9,2.5-4.8.5-2,.8-4.4.8-7.2,0-2.8-.2-5.2-.6-7.2ZM35.4,51.5c0,.6-.2,1-.5,1.2s-1,.3-1.9.3h-5.1s0-.4,0-.4v-13.4c0-.6.2-1.1.5-1.3.3-.2,1-.3,1.9-.3h5.1s0,13.9,0,13.9Z"/>
</svg>